<?xml version="1.0" encoding="utf-8"?>
<!-- Generator: Adobe Illustrator 16.0.0, SVG Export Plug-In . SVG Version: 6.00 Build 0)  -->
<!DOCTYPE svg PUBLIC "-//W3C//DTD SVG 1.1//EN" "http://www.w3.org/Graphics/SVG/1.1/DTD/svg11.dtd">
<svg version="1.1" id="Layer_1" xmlns="http://www.w3.org/2000/svg" xmlns:xlink="http://www.w3.org/1999/xlink" x="0px" y="0px"
	 width="238.282px" height="78.721px" viewBox="0 0 238.282 78.721" enable-background="new 0 0 238.282 78.721"
	 xml:space="preserve">
<g>
	<path fill="#333333" d="M56.455,68.024V43.792h5.037c3.753,0,6.41,0.174,7.969,0.529c1.558,0.354,2.924,0.941,4.104,1.772
		c1.529,1.07,2.688,2.442,3.482,4.116c0.794,1.672,1.188,3.578,1.188,5.721c0,2.141-0.395,4.047-1.188,5.716s-1.953,3.04-3.482,4.11
		c-1.169,0.816-2.501,1.398-4.001,1.744c-1.496,0.35-3.819,0.523-6.967,0.523h-1.105H56.455z M62.992,62.594H64.1
		c2.596,0,4.488-0.532,5.678-1.596c1.191-1.061,1.788-2.753,1.788-5.067c0-2.313-0.597-4.011-1.788-5.092
		c-1.189-1.079-3.082-1.619-5.678-1.619h-1.107V62.594z"/>
	<path fill="#333333" d="M79.475,55.954c0-1.732,0.323-3.36,0.972-4.889c0.643-1.529,1.59-2.896,2.834-4.1
		c1.203-1.191,2.597-2.11,4.177-2.756c1.585-0.645,3.239-0.965,4.971-0.965c1.722,0,3.382,0.32,4.978,0.965
		c1.596,0.646,2.999,1.564,4.215,2.756c1.216,1.192,2.146,2.559,2.791,4.09c0.646,1.535,0.971,3.166,0.971,4.898
		c0,1.744-0.323,3.379-0.963,4.902c-0.639,1.522-1.572,2.883-2.799,4.086c-1.235,1.193-2.651,2.111-4.238,2.756
		c-1.591,0.646-3.241,0.971-4.954,0.971c-1.731,0-3.386-0.325-4.971-0.971c-1.58-0.645-2.974-1.563-4.177-2.756
		c-1.244-1.203-2.191-2.569-2.834-4.104C79.798,59.304,79.475,57.679,79.475,55.954z M86.083,55.954c0,2.088,0.59,3.797,1.773,5.141
		c1.18,1.342,2.705,2.011,4.571,2.011c1.835,0,3.353-0.675,4.55-2.028c1.201-1.353,1.8-3.059,1.8-5.123
		c0-2.037-0.61-3.738-1.825-5.104c-1.216-1.36-2.722-2.044-4.524-2.044c-1.834,0-3.352,0.678-4.549,2.039
		C86.679,52.202,86.083,53.905,86.083,55.954z"/>
</g>
<path fill="#333333" d="M26.616,35.813V12.11h5.967c1.703,0,2.961,0.092,3.778,0.277c0.812,0.183,1.507,0.487,2.075,0.907
	c0.735,0.542,1.304,1.249,1.706,2.124c0.406,0.875,0.606,1.844,0.606,2.9c0,1.249-0.291,2.296-0.87,3.136
	c-0.58,0.838-1.423,1.423-2.529,1.756c1.374,0.218,2.45,0.847,3.236,1.89c0.789,1.046,1.183,2.361,1.183,3.949
	c0,0.965-0.165,1.885-0.502,2.747c-0.329,0.87-0.805,1.605-1.419,2.212c-0.646,0.663-1.449,1.127-2.408,1.398
	c-0.957,0.27-2.567,0.406-4.828,0.406H26.616z M30.389,22.052h1.476c1.834,0,3.129-0.246,3.892-0.738
	c0.762-0.492,1.142-1.322,1.142-2.486c0-1.27-0.351-2.162-1.053-2.676c-0.701-0.512-2.028-0.771-3.98-0.771h-1.476V22.052z
	 M30.389,32.545h1.328c1.35,0,2.357-0.058,3.027-0.162c0.669-0.11,1.199-0.296,1.588-0.562c0.473-0.314,0.841-0.731,1.099-1.258
	c0.261-0.521,0.388-1.102,0.388-1.736c0-0.75-0.153-1.405-0.469-1.962c-0.311-0.556-0.76-0.991-1.342-1.304
	c-0.369-0.18-0.785-0.316-1.255-0.4c-0.469-0.087-1.092-0.13-1.872-0.13h-1.164h-1.328V32.545z"/>
<path fill="#333333" d="M43.152,35.813V12.11h3.852v20.256h8.613v3.447H43.152z"/>
<path fill="#333333" d="M81.396,24.014c0-1.793,0.304-3.442,0.913-4.955c0.607-1.513,1.512-2.845,2.712-3.999
	c1.153-1.136,2.506-2,4.063-2.591c1.557-0.594,3.216-0.892,4.983-0.892c1.873,0,3.542,0.342,5.017,1.02
	c1.476,0.678,2.791,1.721,3.948,3.123l-2.826,2.121c-0.8-0.926-1.701-1.617-2.704-2.068c-1.002-0.455-2.126-0.682-3.367-0.682
	c-2.568,0-4.665,0.82-6.288,2.467c-1.622,1.648-2.437,3.79-2.437,6.422c0,2.678,0.814,4.851,2.437,6.514
	c1.623,1.67,3.73,2.504,6.324,2.504c2.197,0,3.928-0.514,5.191-1.536c1.267-1.02,1.896-2.417,1.896-4.182V26.94h-5.683v-3.269h9.392
	c0,0.162,0.002,0.389,0.015,0.681c0.032,0.774,0.049,1.29,0.049,1.563c0,3.332-0.955,5.92-2.868,7.766
	c-1.916,1.844-4.614,2.765-8.095,2.765c-1.94,0-3.67-0.289-5.195-0.857c-1.521-0.573-2.854-1.438-3.995-2.591
	c-1.125-1.145-1.984-2.486-2.583-4.031C81.694,27.422,81.396,25.771,81.396,24.014z"/>
<g>
	<g>
		<g>
			<path fill="#333333" d="M75.082,37.319c-2.646,0.253-5.792,0.253-8.372-0.502c-4.094-1.26-7.618-4.281-10.387-7.492
				c-1.575-1.888-2.393-3.586-3.273-5.854c-0.505-1.322-0.379-2.518-0.505-3.904c-0.125-1.509-0.187-2.473,0.127-3.984
				c0.316-1.26,1.076-2.49,1.956-3.561c0.601-0.967,1.45-1.744,2.405-2.316c-1.461,0.568-3.606,3.713-4.104,4.609
				c-0.469,1.055-0.645,2.285-0.821,3.398c-0.35,2.229-0.819,3.986-0.585,6.213c0.177,1.583,0.762,3.106,1.231,4.688
				c0.527,1.935,1.563,3.146,2.675,4.729c1.759,2.46,4.124,4.004,7.053,5.059c2.639,0.996,5.452,0.996,8.264,0.819
				c1.348-0.116,2.521-0.351,3.81-0.819c0.763-0.293,4.894-2.578,5.293-3.557l0.016-0.016
				C78.554,36.136,77.291,37.132,75.082,37.319z"/>
		</g>
		<g>
			<path fill="#333333" d="M79.91,34.783l0.15-0.149c-0.001-0.001-0.001-0.001-0.001-0.001
				C80.009,34.682,79.959,34.734,79.91,34.783z"/>
		</g>
	</g>
</g>
<g>
	<g>
		<path fill="#333333" d="M82.995,20.409c-0.646-1.229-1.465-2.343-2.169-3.516c-0.528-0.996-0.819-2.227-1.641-3.048
			c-0.879-0.937-2.403-1.522-3.517-2.051c-1.231-0.646-2.521-1.231-3.692-1.992c-1.758-1.056-3.752-1.523-5.862-1.349
			c-1.053,0.117-2.11,0.293-3.163,0.527c-1.229,0.294-2.638,0.41-3.811,0.879c-1.289,0.527-2.93,1.232-3.691,2.463
			c-0.821,0.996-1.231,2.227-1.523,3.398c-0.293,1.407,0.233,2.638,0.353,4.045c0.116,1.288,0,2.401,0.468,3.633
			c0.82,2.11,1.582,3.691,3.047,5.449c2.579,2.99,5.861,5.804,9.67,6.977c2.403,0.701,5.334,0.701,7.796,0.468
			c2.755-0.234,3.927-1.817,5.743-3.634c1.582-1.582,2.422-3.379,2.539-5.666C83.658,24.768,83.991,22.345,82.995,20.409z
			 M82.351,24.63c-0.194,0.666-0.43,0.781-0.743,1.329c-0.273,0.43-0.585,0-0.547,0.507c0,0.392,0.507,0.703,0.547,1.056
			c0.118,1.484-0.703,3.087-1.914,4.063c-0.236,0.195-0.547,0.234-0.781,0.43c-0.274,0.234-0.195,0.313-0.353,0.664
			c-0.43,0.938-1.798,1.211-2.735,1.484c-1.289,0.391-2.851,0.626-4.18,0.353c-0.586-0.118-1.368-0.899-1.759-1.407
			c-0.898,0.625-1.289,0.43-2.461,0.078c-0.742-0.195-1.484-0.508-2.227-0.781c-0.783-0.313-1.603-0.234-2.306-0.742
			c-0.626-0.469-0.86-1.133-1.171-1.838c-0.236-0.467-0.392-0.937-0.548-1.443c-0.039-0.078,0.038-0.236,0-0.314
			c-0.196-0.35-0.665-0.076-1.172-0.232c-0.549-0.197-0.978-0.273-1.368-0.705c-0.547-0.585-0.859-1.601-1.367-2.227
			c-0.274-0.391-0.938-1.015-1.056-1.523c-0.117-0.508,0.194-1.485,0.353-1.992c0.116-0.391,0.547-0.781,0.468-1.172
			c-0.039-0.195-0.43-0.43-0.547-0.625c-0.156-0.235-0.195-0.51-0.353-0.743c-0.234-0.509-0.39-0.899-0.467-1.485
			c-0.157-1.055,0.272-2.501,1.054-3.281c0.548-0.547,1.876-1.25,2.657-0.742l-0.04-0.078c-0.585-1.328,0.391-1.954,1.407-2.541
			c1.289-0.82,1.915-1.055,3.399-0.781c0.508,0.079,1.017,0.196,1.445,0.471c0.235,0.154,0.353,0.39,0.664,0.507
			c0.313-0.469,0.469-1.056,1.095-1.211c0.663-0.157,1.992,0.155,2.655,0.469c0.392,0.157,0.821,0.508,1.211,0.742
			c0.471,0.233,0.979,0.353,1.447,0.586c0.703,0.313,0.742,0.821,1.094,1.446c0.468-0.47,1.446,0.154,1.954,0.391
			c1.133,0.431,2.422,0.507,3.048,1.641c0.546,0.938,1.133,2.189,1.171,3.244c0.038,0.272-0.116,0.664,0,0.857
			c0.156,0.236,0.782,0.352,1.017,0.626c0.391,0.47,0.819,1.099,1.054,1.647C82.507,22.331,82.704,23.536,82.351,24.63z"/>
	</g>
</g>
<g>
	<g>
		<g>
			<path fill="#333333" d="M70.687,24.454c-0.116-0.352-0.41-0.41-0.322-0.877c0.059-0.324,0.206-0.471,0.499-0.53
				c-0.529-0.585-1.026-1.259-0.323-1.935c-0.498-0.263-0.732-0.174-0.791-0.789c-0.03-0.411-0.06-0.909,0.028-1.29
				c-0.203,0.175-0.702,0.704-0.995,0.704c-0.322,0-0.528-0.498-0.645-0.47l-0.028,0.06c-0.06,0.439-0.529,0.497-0.881,0.469
				c0.265,0.703-0.116,1.113-0.731,1.406c0.381,0.174,0.966,0.088,1.083,0.556c0.089,0.321-0.292,0.85-0.439,1.144
				c0.879-0.176,1.407,0.676,1.788,1.377c0.021-0.01,0.04-0.023,0.061-0.034l0.121,6.524c0.089-0.855,0.215-1.713,0.229-2.564
				c0-1.33-0.199-2.632-0.345-3.962c0.202-0.124,0.372-0.312,0.638-0.286C70.042,23.956,70.248,24.454,70.687,24.454z"/>
		</g>
		<g>
			<path fill="#333333" d="M74.35,27.59c-1.26-0.996-2.432-2.14-3.692-3.136l7.941,7.15c-0.264-0.41-0.557-0.791-0.909-1.173
				C76.723,29.318,75.492,28.527,74.35,27.59z"/>
		</g>
		<g>
			<path fill="#333333" d="M80.591,26.037c-2.989-1.7-6.417-2.14-9.67-3.136L80.591,26.037z"/>
		</g>
		<g>
			<path fill="#333333" d="M80.269,18.827c-0.645-0.059-1.317-0.087-1.934,0.061c-0.733,0.146-1.437,0.497-2.169,0.703
				c-1.845,0.557-3.722,0.994-5.596,1.435L80.269,18.827z"/>
		</g>
		<g>
			<path fill="#333333" d="M71.713,16.337c0.293-0.527,0.615-1.055,0.908-1.582c0.265-0.47,0.673-1.055,0.761-1.612l-3.604,5.92
				C70.394,18.125,71.185,17.335,71.713,16.337z"/>
		</g>
		<g>
			<path fill="#333333" d="M61.397,14.872c1.817,1.904,3.428,3.692,5.831,4.924l-7.355-6.535
				C60.284,13.846,60.929,14.345,61.397,14.872z"/>
		</g>
		<g>
			<path fill="#333333" d="M64.639,21.14l1.887,0.18C65.928,21.173,65.284,21.144,64.639,21.14z"/>
		</g>
		<g>
			<path fill="#333333" d="M58.027,20.511c-0.351-0.057-0.703-0.102-1.055-0.102L58.027,20.511z"/>
		</g>
		<g>
			<path fill="#333333" d="M62.716,21.112c0.619,0.045,1.273,0.023,1.923,0.027l-6.611-0.629c0.466,0.074,0.926,0.172,1.378,0.223
				C60.519,20.85,61.604,21.055,62.716,21.112z"/>
		</g>
		<g>
			<path fill="#333333" d="M60.929,28.645l2.02-1.878c-0.139,0.117-0.276,0.236-0.408,0.354
				C61.983,27.59,61.457,28.116,60.929,28.645z"/>
		</g>
		<g>
			<path fill="#333333" d="M67.17,22.842l-4.222,3.925C64.391,25.552,66.181,24.392,67.17,22.842z"/>
		</g>
		<g>
			<path fill="#333333" d="M69.163,33.567l-0.053-2.799C69.013,31.71,68.964,32.646,69.163,33.567z"/>
		</g>
	</g>
</g>
<path fill="#333333" d="M107.065,68.956V12.192h15.533c6.406,0,10.881,0.203,13.421,0.619c2.539,0.416,4.731,1.124,6.563,2.139
	c2.092,1.164,3.692,2.73,4.789,4.686c1.094,1.953,1.646,4.213,1.646,6.788c0,3.221-0.824,5.788-2.457,7.681
	c-1.635,1.9-4.241,3.336-7.823,4.317c3.969,0.313,7.081,1.722,9.322,4.235c2.239,2.52,3.362,5.883,3.362,10.092
	c0,3.022-0.64,5.679-1.914,7.979c-1.272,2.302-3.09,4.087-5.459,5.353c-1.934,1.035-4.312,1.771-7.145,2.207
	c-2.833,0.447-7.464,0.668-13.898,0.668H107.065z M121.405,34.908h3.105c3.826,0,6.448-0.422,7.872-1.259
	c1.424-0.839,2.132-2.296,2.132-4.366c0-2.138-0.668-3.649-1.996-4.515c-1.327-0.864-3.923-1.301-7.775-1.301h-3.338V34.908z
	 M121.405,57.358h5.435c3.67,0,6.264-0.456,7.789-1.376c1.527-0.919,2.287-2.444,2.287-4.597c0-2.375-0.694-4.037-2.09-4.984
	c-1.396-0.939-3.982-1.416-7.756-1.416h-5.665V57.358z"/>
<path fill="#333333" d="M151.766,40.608c0-4.243,0.722-8.139,2.172-11.692c1.457-3.555,3.615-6.748,6.496-9.595
	c2.846-2.764,6.114-4.855,9.807-6.277c3.683-1.424,7.652-2.133,11.922-2.133c5.556,0,10.472,1.098,14.755,3.297
	c4.277,2.192,7.872,5.46,10.793,9.805l-13.414,6.441c-1.601-2.206-3.404-3.84-5.406-4.909c-2.009-1.068-4.249-1.606-6.728-1.606
	c-4.624,0-8.274,1.546-10.936,4.644c-2.664,3.099-3.991,7.32-3.991,12.687c0,5.419,1.327,9.675,3.991,12.787
	c2.661,3.105,6.312,4.658,10.936,4.658c3.93,0,7.204-0.968,9.826-2.908c2.628-1.94,4.153-4.528,4.595-7.756h-15.388V36.147h30.396
	c0.02,0.388,0.041,0.816,0.055,1.28c0.013,0.462,0.02,1.15,0.02,2.056c0,9.771-2.58,17.351-7.733,22.744
	c-5.156,5.385-12.415,8.075-21.771,8.075c-4.604,0-8.696-0.688-12.276-2.07c-3.582-1.382-6.782-3.492-9.608-6.339
	c-2.696-2.718-4.788-5.924-6.278-9.636C152.507,48.554,151.766,44.665,151.766,40.608z"/>
</svg>
